<svg width="156" height="52" viewBox="0 0 156 52" fill="none" xmlns="http://www.w3.org/2000/svg">
    <g clip-path="url(#clip0_15_20956)">
        <path
            d="M143.577 -0.000685492H12.4299C11.9518 -0.000685492 11.4795 -0.000685492 11.0027 0.00191451C10.6036 0.00451451 10.2077 0.0120675 9.80475 0.0184245C8.92936 0.0286969 8.05604 0.105494 7.19236 0.248148C6.3299 0.393907 5.49446 0.668705 4.71428 1.06325C3.93507 1.46113 3.22307 1.97813 2.60413 2.59551C1.98194 3.21114 1.4633 3.92274 1.06815 4.70292C0.671901 5.48156 0.397144 6.31593 0.253364 7.17724C0.108217 8.03745 0.0301122 8.90759 0.0197503 9.77984C0.00765242 10.1784 0.00637485 10.5783 0 10.977V41.0255C0.00637485 41.4291 0.00765242 41.8202 0.0197503 42.224C0.0301154 43.0962 0.10822 43.9663 0.253364 44.8264C0.396747 45.6882 0.67152 46.5231 1.06815 47.302C1.46312 48.0797 1.98184 48.7884 2.60413 49.4006C3.22072 50.0207 3.93318 50.5381 4.71428 50.9329C5.49445 51.3285 6.3298 51.605 7.19236 51.753C8.05619 51.8945 8.92942 51.9713 9.80475 51.9828C10.2077 51.9916 10.6036 51.9967 11.0027 51.9967C11.4795 51.9993 11.9519 51.9993 12.4299 51.9993H143.577C144.046 51.9993 144.522 51.9993 144.99 51.9967C145.388 51.9967 145.795 51.9916 146.192 51.9828C147.066 51.9719 147.937 51.8951 148.799 51.753C149.665 51.6039 150.503 51.3276 151.287 50.9329C152.067 50.5379 152.779 50.0205 153.395 49.4006C154.016 48.786 154.536 48.0778 154.936 47.302C155.329 46.5225 155.601 45.6877 155.743 44.8264C155.888 43.9661 155.969 43.0962 155.985 42.224C155.99 41.8202 155.99 41.4291 155.99 41.0255C156 40.5532 156 40.0835 156 39.6036V12.3963C156 11.9202 156 11.4479 155.99 10.977C155.99 10.5783 155.99 10.1784 155.985 9.77979C155.969 8.90746 155.888 8.03752 155.743 7.17719C155.601 6.31638 155.329 5.48207 154.936 4.70287C154.131 3.13907 152.855 1.86615 151.287 1.06313C150.503 0.669552 149.665 0.394827 148.799 0.24803C147.938 0.104748 147.066 0.0279246 146.192 0.0182425C145.795 0.0118985 145.388 0.00428051 144.99 0.00174551C144.522 -0.000854492 144.046 -0.000854492 143.577 -0.000854492V-0.000685492Z"
            fill="#A6A6A6" />
        <path
            d="M11.009 50.8624C10.6118 50.8624 10.2242 50.8573 9.83017 50.8485C9.0138 50.8379 8.19934 50.767 7.39346 50.6364C6.64203 50.5074 5.91409 50.2673 5.23366 49.9242C4.55946 49.5839 3.94455 49.1376 3.41246 48.6026C2.87267 48.0739 2.42327 47.4606 2.08207 46.7871C1.73711 46.1093 1.49838 45.3828 1.37419 44.6328C1.24008 43.8269 1.16751 43.0121 1.15713 42.1953C1.14887 41.9211 1.13805 41.0083 1.13805 41.0083V10.9775C1.13805 10.9775 1.14957 10.0787 1.1572 9.81463C1.16714 8.99912 1.23928 8.18554 1.37299 7.38094C1.49741 6.62892 1.73633 5.90026 2.08147 5.22021C2.42142 4.54722 2.86832 3.93351 3.40486 3.40287C3.94079 2.8672 4.55768 2.41868 5.23302 2.07366C5.91189 1.73161 6.63845 1.49324 7.38837 1.36654C8.19689 1.23468 9.01418 1.16339 9.83337 1.15326L11.0097 1.13739H144.984L146.174 1.1539C146.986 1.16352 147.796 1.23418 148.597 1.36527C149.354 1.49356 150.089 1.73359 150.775 2.07747C152.128 2.77277 153.229 3.8728 153.923 5.22338C154.263 5.89874 154.498 6.62145 154.621 7.36698C154.757 8.17818 154.832 8.99815 154.848 9.82035C154.852 10.1885 154.852 10.584 154.852 10.9775C154.862 11.465 154.862 11.929 154.862 12.3969V39.6041C154.862 40.0764 154.862 40.5373 154.852 41.0019C154.852 41.4246 154.852 41.8119 154.846 42.2105C154.831 43.018 154.757 43.8234 154.624 44.62C154.502 45.3754 154.265 46.1077 153.92 46.791C153.576 47.4572 153.129 48.0651 152.596 48.5925C152.063 49.1304 151.447 49.5792 150.771 49.9217C150.087 50.2675 149.354 50.5084 148.597 50.6364C147.791 50.7677 146.977 50.8386 146.16 50.8485C145.778 50.8573 145.378 50.8624 144.99 50.8624L143.577 50.865L11.009 50.8624Z"
            fill="black" />
        <path
            d="M32.2899 26.3908C32.304 25.3057 32.593 24.2418 33.1301 23.2981C33.6673 22.3543 34.4351 21.5614 35.3621 20.9931C34.7732 20.1544 33.9963 19.4642 33.0931 18.9772C32.1899 18.4903 31.1852 18.2201 30.159 18.1881C27.9699 17.959 25.8476 19.4944 24.732 19.4944C23.5949 19.4944 21.8773 18.2109 20.0278 18.2488C18.8315 18.2873 17.6656 18.6343 16.6437 19.2557C15.6218 19.8772 14.7787 20.7521 14.1967 21.795C11.6754 26.148 13.5561 32.5453 15.9712 36.0639C17.1796 37.7869 18.5918 39.7115 20.4397 39.6432C22.2479 39.5684 22.9232 38.4934 25.1059 38.4934C27.2684 38.4934 27.902 39.6432 29.7873 39.5998C31.7277 39.5684 32.9502 37.8692 34.1161 36.13C34.9843 34.9023 35.6524 33.5454 36.0956 32.1097C34.9683 31.6342 34.0063 30.8384 33.3296 29.8214C32.6528 28.8044 32.2913 27.6113 32.2899 26.3908V26.3908Z"
            fill="white" />
        <path
            d="M28.7289 15.8739C29.7868 14.6075 30.308 12.9796 30.1818 11.3361C28.5655 11.5054 27.0725 12.2757 26.0003 13.4936C25.476 14.0886 25.0745 14.7807 24.8187 15.5305C24.5628 16.2803 24.4577 17.0731 24.5093 17.8634C25.3177 17.8717 26.1175 17.697 26.8484 17.3524C27.5793 17.0078 28.2223 16.5023 28.7289 15.8739Z"
            fill="white" />
        <path
            d="M55.1474 35.2815H48.9767L47.4948 39.6449H44.8811L50.7259 23.5015H53.4414L59.2862 39.6449H56.628L55.1474 35.2815ZM49.6158 33.2681H54.5071L52.0958 26.1866H52.0283L49.6158 33.2681Z"
            fill="white" />
        <path
            d="M71.9089 33.7606C71.9089 37.4181 69.9458 39.768 66.9833 39.768C66.2328 39.8071 65.4865 39.6347 64.8297 39.2706C64.173 38.9064 63.6323 38.3651 63.2697 37.7088H63.2136V43.5385H60.7909V27.875H63.136V29.8326H63.1806C63.5599 29.1794 64.1097 28.641 64.7714 28.2746C65.4332 27.9082 66.1822 27.7275 66.9387 27.7519C69.9343 27.7519 71.9089 30.1132 71.9089 33.7606ZM69.4187 33.7606C69.4187 31.3777 68.1838 29.8111 66.2996 29.8111C64.4486 29.8111 63.2035 31.4107 63.2035 33.7606C63.2035 36.1321 64.4486 37.7202 66.2996 37.7202C68.1838 37.7202 69.4187 36.1651 69.4187 33.7606Z"
            fill="white" />
        <path
            d="M84.8996 33.7606C84.8996 37.4181 82.9365 39.768 79.974 39.768C79.2236 39.8071 78.4772 39.6347 77.8205 39.2706C77.1637 38.9064 76.623 38.3651 76.2604 37.7088H76.2043V43.5385H73.7816V27.875H76.1267V29.8326H76.1712C76.5505 29.1794 77.1003 28.641 77.7621 28.2746C78.4239 27.9082 79.1729 27.7275 79.9294 27.7519C82.9251 27.7519 84.8996 30.1132 84.8996 33.7606ZM82.4094 33.7606C82.4094 31.3777 81.1745 29.811 79.2904 29.811C77.4393 29.811 76.1942 31.4107 76.1942 33.7606C76.1942 36.132 77.4393 37.7202 79.2904 37.7202C81.1745 37.7202 82.4095 36.165 82.4095 33.7606H82.4094Z"
            fill="white" />
        <path
            d="M93.4853 35.1469C93.6649 36.7478 95.2244 37.7989 97.3555 37.7989C99.3976 37.7989 100.867 36.7478 100.867 35.3043C100.867 34.0513 99.9807 33.301 97.8826 32.7868L95.7846 32.2828C92.8119 31.5668 91.4318 30.1804 91.4318 27.9308C91.4318 25.1455 93.866 23.2323 97.3224 23.2323C100.743 23.2323 103.088 25.1455 103.167 27.9308H100.722C100.575 26.3198 99.2397 25.3473 97.288 25.3473C95.3364 25.3473 94.0009 26.3312 94.0009 27.7633C94.0009 28.9046 94.8539 29.5762 96.9405 30.0903L98.7241 30.527C102.046 31.3103 103.426 32.6408 103.426 35.0021C103.426 38.0223 101.013 39.9139 97.176 39.9139C93.5859 39.9139 91.1619 38.0667 91.0053 35.1468L93.4853 35.1469Z"
            fill="white" />
        <path
            d="M108.654 25.0896V27.875H110.899V29.7881H108.654V36.2767C108.654 37.2847 109.104 37.7544 110.09 37.7544C110.357 37.7498 110.623 37.7312 110.887 37.6985V39.6003C110.444 39.683 109.993 39.7204 109.542 39.712C107.152 39.712 106.22 38.817 106.22 36.5344V29.7881H104.504V27.875H106.22V25.0896H108.654Z"
            fill="white" />
        <path
            d="M112.199 33.7605C112.199 30.0573 114.386 27.7302 117.796 27.7302C121.218 27.7302 123.395 30.0572 123.395 33.7605C123.395 37.4739 121.23 39.7908 117.796 39.7908C114.364 39.7908 112.199 37.4739 112.199 33.7605ZM120.927 33.7605C120.927 31.2202 119.76 29.7208 117.796 29.7208C115.833 29.7208 114.667 31.2316 114.667 33.7605C114.667 36.311 115.833 37.7989 117.796 37.7989C119.76 37.7989 120.927 36.311 120.927 33.7605H120.927Z"
            fill="white" />
        <path
            d="M125.393 27.8749H127.704V29.8782H127.76C127.916 29.2525 128.284 28.6996 128.801 28.3123C129.318 27.9251 129.953 27.7271 130.599 27.7517C130.878 27.7508 131.156 27.781 131.429 27.8419V30.1016C131.076 29.9942 130.709 29.9449 130.34 29.9557C129.988 29.9414 129.637 30.0033 129.312 30.1371C128.986 30.2708 128.693 30.4733 128.453 30.7305C128.213 30.9878 128.032 31.2937 127.922 31.6274C127.812 31.9611 127.776 32.3146 127.816 32.6636V39.6447H125.393L125.393 27.8749Z"
            fill="white" />
        <path
            d="M142.599 36.1878C142.273 38.3245 140.186 39.7908 137.517 39.7908C134.083 39.7908 131.952 37.4967 131.952 33.8164C131.952 30.1246 134.095 27.7302 137.415 27.7302C140.68 27.7302 142.734 29.9671 142.734 33.5358V34.3635H134.398V34.5095C134.359 34.9427 134.413 35.379 134.557 35.7896C134.701 36.2002 134.93 36.5756 135.231 36.891C135.531 37.2063 135.895 37.4543 136.299 37.6185C136.703 37.7827 137.137 37.8593 137.573 37.8433C138.145 37.8968 138.72 37.7646 139.211 37.4663C139.702 37.168 140.083 36.7196 140.298 36.1878L142.599 36.1878ZM134.409 32.675H140.31C140.332 32.2856 140.272 31.8958 140.136 31.5302C139.999 31.1647 139.789 30.8312 139.517 30.5507C139.245 30.2702 138.918 30.0487 138.556 29.9003C138.194 29.7518 137.806 29.6795 137.415 29.6878C137.02 29.6855 136.629 29.7611 136.264 29.9102C135.899 30.0594 135.567 30.2792 135.288 30.5569C135.008 30.8346 134.787 31.1648 134.636 31.5284C134.485 31.8919 134.408 32.2816 134.409 32.6751V32.675Z"
            fill="white" />
        <path
            d="M49.3121 11.3499C49.82 11.3136 50.3297 11.3901 50.8044 11.574C51.279 11.7578 51.7069 12.0444 52.057 12.4132C52.4072 12.7819 52.6709 13.2235 52.8291 13.7061C52.9874 14.1888 53.0363 14.7005 52.9722 15.2042C52.9722 17.6823 51.6291 19.1068 49.3121 19.1068H46.5024V11.3499H49.3121ZM47.7105 18.0098H49.1771C49.5401 18.0315 49.9033 17.9721 50.2403 17.8361C50.5774 17.7001 50.8798 17.4909 51.1255 17.2237C51.3712 16.9564 51.5541 16.6379 51.6608 16.2913C51.7675 15.9447 51.7954 15.5787 51.7424 15.22C51.7916 14.8627 51.7609 14.499 51.6525 14.155C51.5442 13.8109 51.3608 13.495 51.1157 13.2299C50.8705 12.9648 50.5695 12.757 50.2344 12.6215C49.8993 12.486 49.5382 12.4261 49.1771 12.4461H47.7105V18.0098Z"
            fill="white" />
        <path
            d="M54.337 16.1774C54.3001 15.7927 54.3443 15.4045 54.4666 15.0378C54.5889 14.6712 54.7868 14.334 55.0474 14.048C55.3081 13.7621 55.6258 13.5336 55.9802 13.3772C56.3346 13.2208 56.7178 13.1401 57.1054 13.1401C57.4929 13.1401 57.8762 13.2208 58.2306 13.3772C58.585 13.5336 58.9027 13.7621 59.1633 14.048C59.424 14.334 59.6218 14.6712 59.7442 15.0378C59.8665 15.4045 59.9106 15.7927 59.8737 16.1774C59.9113 16.5625 59.8677 16.9511 59.7457 17.3184C59.6237 17.6857 59.426 18.0235 59.1652 18.31C58.9045 18.5965 58.5866 18.8255 58.2318 18.9822C57.8771 19.1389 57.4934 19.2199 57.1054 19.2199C56.7174 19.2199 56.3337 19.1389 55.9789 18.9822C55.6242 18.8255 55.3062 18.5965 55.0455 18.31C54.7848 18.0235 54.587 17.6857 54.465 17.3184C54.343 16.9511 54.2994 16.5625 54.337 16.1774V16.1774ZM58.6821 16.1774C58.6821 14.9085 58.1105 14.1664 57.1073 14.1664C56.1003 14.1664 55.5338 14.9085 55.5338 16.1774C55.5338 17.4564 56.1003 18.1928 57.1073 18.1928C58.1105 18.1927 58.6821 17.4513 58.6821 16.1774H58.6821Z"
            fill="white" />
        <path
            d="M67.2335 19.1069H66.0317L64.8184 14.7956H64.7268L63.5186 19.1069H62.3282L60.7101 13.2531H61.8852L62.9368 17.7199H63.0234L64.2303 13.2531H65.3417L66.5486 17.7199H66.6402L67.6867 13.2531H68.8452L67.2335 19.1069Z"
            fill="white" />
        <path
            d="M70.2061 13.253H71.3213V14.183H71.4079C71.5547 13.849 71.8024 13.569 72.1165 13.382C72.4305 13.1951 72.7951 13.1105 73.1597 13.14C73.4453 13.1186 73.7321 13.1616 73.9988 13.2657C74.2655 13.3698 74.5053 13.5325 74.7005 13.7416C74.8956 13.9506 75.0411 14.2008 75.1261 14.4736C75.2111 14.7464 75.2334 15.0347 75.1915 15.3173V19.1068H74.033V15.6074C74.033 14.6667 73.6231 14.1988 72.7663 14.1988C72.5723 14.1898 72.3788 14.2227 72.1988 14.2953C72.0188 14.3679 71.8567 14.4784 71.7236 14.6193C71.5904 14.7602 71.4894 14.9282 71.4274 15.1116C71.3655 15.2951 71.344 15.4898 71.3646 15.6823V19.1068H70.2061L70.2061 13.253Z"
            fill="white" />
        <path d="M77.0376 10.9679H78.1961V19.1069H77.0376V10.9679Z" fill="white" />
        <path
            d="M79.8065 16.1775C79.7696 15.7928 79.8138 15.4046 79.9361 15.0379C80.0585 14.6712 80.2564 14.334 80.5171 14.048C80.7777 13.7621 81.0955 13.5336 81.4499 13.3772C81.8043 13.2208 82.1876 13.1401 82.5752 13.1401C82.9627 13.1401 83.346 13.2208 83.7004 13.3772C84.0548 13.5336 84.3726 13.7621 84.6333 14.048C84.8939 14.334 85.0918 14.6712 85.2142 15.0379C85.3365 15.4046 85.3807 15.7928 85.3438 16.1775C85.3814 16.5626 85.3377 16.9513 85.2157 17.3185C85.0936 17.6858 84.8959 18.0236 84.6351 18.3101C84.3744 18.5966 84.0564 18.8256 83.7016 18.9823C83.3469 19.139 82.9632 19.2199 82.5752 19.2199C82.1872 19.2199 81.8034 19.139 81.4487 18.9823C81.0939 18.8256 80.7759 18.5966 80.5152 18.3101C80.2544 18.0236 80.0567 17.6858 79.9346 17.3185C79.8126 16.9513 79.7689 16.5626 79.8065 16.1775V16.1775ZM84.1516 16.1775C84.1516 14.9086 83.5799 14.1665 82.5767 14.1665C81.5697 14.1665 81.0032 14.9086 81.0032 16.1775C81.0032 17.4565 81.5698 18.1929 82.5767 18.1929C83.5799 18.1929 84.1516 17.4515 84.1516 16.1775H84.1516Z"
            fill="white" />
        <path
            d="M86.5635 17.4514C86.5635 16.3977 87.3503 15.7902 88.7469 15.7039L90.337 15.6125V15.1072C90.337 14.4889 89.927 14.1398 89.1352 14.1398C88.4884 14.1398 88.0403 14.3766 87.9117 14.7905H86.7901C86.9085 13.785 87.857 13.1401 89.1886 13.1401C90.6603 13.1401 91.4904 13.8707 91.4904 15.1072V19.1069H90.3752V18.2842H90.2835C90.0974 18.5793 89.8362 18.8199 89.5264 18.9813C89.2166 19.1428 88.8694 19.2194 88.5203 19.2033C88.2738 19.2289 88.0247 19.2027 87.7891 19.1264C87.5535 19.05 87.3365 18.9253 87.1521 18.7603C86.9677 18.5952 86.8201 18.3935 86.7187 18.168C86.6174 17.9426 86.5645 17.6985 86.5635 17.4514V17.4514ZM90.337 16.9512V16.4618L88.9035 16.5532C88.095 16.6072 87.7284 16.8814 87.7284 17.3974C87.7284 17.9243 88.1867 18.2309 88.8169 18.2309C89.0016 18.2495 89.1881 18.2309 89.3654 18.1762C89.5427 18.1215 89.7072 18.0318 89.849 17.9124C89.9908 17.793 90.1071 17.6464 90.1909 17.4812C90.2748 17.3161 90.3244 17.1359 90.337 16.9512V16.9512Z"
            fill="white" />
        <path
            d="M93.013 16.1774C93.013 14.3277 93.9666 13.156 95.4497 13.156C95.8166 13.1391 96.1807 13.2267 96.4994 13.4086C96.8182 13.5904 97.0785 13.859 97.2499 14.183H97.3364V10.9679H98.4949V19.1069H97.3848V18.182H97.2932C97.1085 18.5037 96.8392 18.769 96.5143 18.949C96.1893 19.129 95.8212 19.217 95.4497 19.2033C93.9564 19.2034 93.013 18.0316 93.013 16.1774ZM94.2097 16.1774C94.2097 17.419 94.7967 18.1662 95.7782 18.1662C96.7546 18.1662 97.3581 17.4083 97.3581 16.1825C97.3581 14.9625 96.7483 14.1938 95.7782 14.1938C94.803 14.1938 94.2097 14.946 94.2097 16.1774H94.2097Z"
            fill="white" />
        <path
            d="M103.288 16.1774C103.251 15.7927 103.295 15.4045 103.418 15.0378C103.54 14.6712 103.738 14.334 103.999 14.048C104.259 13.7621 104.577 13.5336 104.931 13.3772C105.286 13.2208 105.669 13.1401 106.056 13.1401C106.444 13.1401 106.827 13.2208 107.182 13.3772C107.536 13.5336 107.854 13.7621 108.114 14.048C108.375 14.334 108.573 14.6712 108.695 15.0378C108.818 15.4045 108.862 15.7927 108.825 16.1774C108.862 16.5625 108.819 16.9511 108.697 17.3184C108.575 17.6857 108.377 18.0235 108.116 18.31C107.856 18.5965 107.538 18.8255 107.183 18.9822C106.828 19.1389 106.444 19.2199 106.056 19.2199C105.668 19.2199 105.285 19.1389 104.93 18.9822C104.575 18.8255 104.257 18.5965 103.997 18.31C103.736 18.0235 103.538 17.6857 103.416 17.3184C103.294 16.9511 103.251 16.5625 103.288 16.1774V16.1774ZM107.633 16.1774C107.633 14.9085 107.062 14.1664 106.058 14.1664C105.051 14.1664 104.485 14.9085 104.485 16.1774C104.485 17.4564 105.051 18.1928 106.058 18.1928C107.062 18.1927 107.633 17.4513 107.633 16.1774Z"
            fill="white" />
        <path
            d="M110.379 13.253H111.495V14.183H111.581C111.728 13.849 111.976 13.569 112.29 13.382C112.604 13.1951 112.968 13.1105 113.333 13.14C113.618 13.1186 113.905 13.1616 114.172 13.2657C114.439 13.3698 114.679 13.5325 114.874 13.7416C115.069 13.9506 115.214 14.2008 115.299 14.4736C115.384 14.7464 115.407 15.0347 115.365 15.3173V19.1068H114.206V15.6074C114.206 14.6667 113.796 14.1988 112.939 14.1988C112.746 14.1898 112.552 14.2227 112.372 14.2953C112.192 14.3679 112.03 14.4784 111.897 14.6193C111.764 14.7602 111.663 14.9282 111.601 15.1116C111.539 15.2951 111.517 15.4898 111.538 15.6823V19.1068H110.379V13.253Z"
            fill="white" />
        <path
            d="M121.911 11.7955V13.2796H123.183V14.2527H121.911V17.2628C121.911 17.876 122.164 18.1445 122.741 18.1445C122.889 18.144 123.036 18.1351 123.183 18.1178V19.0801C122.975 19.1172 122.764 19.137 122.553 19.1391C121.264 19.1391 120.751 18.6872 120.751 17.5586V14.2527H119.819V13.2796H120.751V11.7955H121.911Z"
            fill="white" />
        <path
            d="M124.765 10.9679H125.914V14.1938H126.005C126.159 13.8567 126.414 13.5751 126.734 13.3874C127.054 13.1998 127.425 13.1152 127.795 13.1451C128.079 13.1297 128.363 13.177 128.627 13.2837C128.891 13.3903 129.128 13.5537 129.321 13.7622C129.514 13.9706 129.658 14.219 129.744 14.4895C129.83 14.7601 129.855 15.0462 129.817 15.3275V19.1069H128.657V15.6125C128.657 14.6775 128.22 14.2039 127.402 14.2039C127.203 14.1876 127.002 14.2149 126.815 14.2839C126.628 14.3529 126.458 14.4618 126.317 14.6032C126.176 14.7446 126.068 14.9149 126 15.1023C125.932 15.2897 125.906 15.4896 125.924 15.688V19.1068H124.765L124.765 10.9679Z"
            fill="white" />
        <path
            d="M136.572 17.5264C136.415 18.0614 136.074 18.5242 135.609 18.8338C135.144 19.1434 134.584 19.2801 134.028 19.2199C133.642 19.2301 133.257 19.1563 132.902 19.0035C132.547 18.8507 132.229 18.6226 131.971 18.3352C131.713 18.0477 131.521 17.7077 131.408 17.3387C131.295 16.9697 131.264 16.5807 131.317 16.1985C131.265 15.8151 131.297 15.4252 131.41 15.0551C131.522 14.6851 131.713 14.3435 131.97 14.0535C132.227 13.7635 132.543 13.5319 132.897 13.3743C133.251 13.2167 133.635 13.1369 134.023 13.1402C135.657 13.1402 136.642 14.253 136.642 16.0912V16.4943H132.497V16.559C132.479 16.7739 132.506 16.9901 132.576 17.1939C132.647 17.3976 132.759 17.5845 132.907 17.7423C133.054 17.9002 133.232 18.0257 133.431 18.1107C133.63 18.1957 133.844 18.2384 134.06 18.236C134.337 18.2692 134.618 18.2194 134.867 18.0931C135.115 17.9667 135.321 17.7694 135.457 17.5264L136.572 17.5264ZM132.497 15.6399H135.462C135.476 15.4434 135.45 15.2461 135.383 15.0605C135.317 14.875 135.212 14.7054 135.076 14.5626C134.94 14.4198 134.775 14.3069 134.593 14.2313C134.411 14.1556 134.214 14.1189 134.017 14.1234C133.816 14.1209 133.618 14.1584 133.432 14.2338C133.246 14.3091 133.078 14.4207 132.936 14.562C132.794 14.7034 132.683 14.8715 132.607 15.0567C132.532 15.2418 132.494 15.4401 132.497 15.6399H132.497Z"
            fill="white" />
    </g>
    <defs>
        <clipPath id="clip0_15_20956">
            <rect width="156" height="52" fill="white" />
        </clipPath>
    </defs>
</svg>
