<svg width="56" height="42" viewBox="0 0 56 42" fill="none" xmlns="http://www.w3.org/2000/svg">
<g filter="url(#filter0_b_9996_70362)">
<path d="M39.3108 15.5237C38.4985 14.4039 36.9357 12.9025 36.1557 12.2348C31.8264 8.71911 27.0029 8.55626 21.9651 10.8965C19.235 11.3333 17.3184 12.7115 16.2647 14.9953C13.9248 17.7042 13.4525 20.5071 15.8458 23.2646C17.037 25.4053 19.0217 25.7612 21.3067 24.7503C22.242 26.4708 23.958 27.4278 26.9131 26.7851C27.6554 27.7254 29.0008 27.8518 29.8251 27.8629L32.3274 30.6387C32.4869 30.8157 32.714 30.9167 32.9523 30.9167H34.7148C35.2575 30.9167 35.6595 30.4091 35.533 29.8797L35.3046 28.9245C39.5229 28.0377 41.7747 24.2557 39.9057 22.0606C41.6318 19.9753 41.2643 17.4488 39.3108 15.5237ZM38.1213 21.49C37.698 21.8661 37.7592 22.5484 38.2485 22.8409C40.0485 23.917 37.8179 27.0413 34.1924 27.395C33.6841 27.4445 33.3373 27.9321 33.4558 28.428L33.6485 29.234H33.3265L30.8234 26.4573C30.6637 26.2802 30.4366 26.1793 30.1985 26.1793C29.5239 26.1793 28.3471 26.1854 28.1318 25.5462C27.9895 25.1232 27.5416 24.8853 27.1113 25.0034C25.3469 25.4889 23.6789 25.5743 22.7974 23.9715C24.1284 23.0847 24.6967 21.7485 24.2188 20.5046C24.0522 20.0709 23.5656 19.8542 23.1317 20.021C22.698 20.1876 22.4815 20.6743 22.6481 21.108C22.9276 21.8356 22.0452 22.4841 21.4967 22.7848C21.3754 22.8512 19.5407 23.9106 18.5092 23.5395C18.0308 23.3674 17.4075 22.52 17.1689 22.2215C16.0634 20.9753 15.6161 19.6812 16.2223 18.1438C16.8038 19.6133 18.123 20.4928 19.6458 20.4928C20.1105 20.4928 20.4872 20.1162 20.4872 19.6515C20.4872 19.1869 20.1105 18.8102 19.6458 18.8102C18.0098 18.8102 17.2757 17.0859 17.761 15.7702C18.5753 13.9497 20.0521 12.8965 22.2734 12.5518C23.0679 12.5717 23.2754 12.9702 23.5826 13.4106C23.8467 13.79 24.3706 13.8871 24.7537 13.6204C25.135 13.3549 25.229 12.8306 24.9635 12.4493C24.8241 12.2492 24.6672 11.9951 24.401 11.7255C26.4281 11.0342 28.3373 10.8474 30.1406 11.1684C29.0075 12.3155 28.5287 13.8709 28.7481 15.7528C28.798 16.1812 29.1616 16.4967 29.5827 16.4967C30.088 16.4967 30.4776 16.0569 30.4194 15.5579C30.2132 13.7896 30.7544 12.5674 32.118 11.7403C33.0403 12.1149 33.9335 12.6351 34.7997 13.3008C34.699 13.83 34.4251 14.1867 33.9419 14.4317C33.5275 14.6418 33.3619 15.1481 33.5721 15.5625C33.7832 15.979 34.2904 16.1416 34.7029 15.9324C35.3672 15.5956 35.8578 15.1071 36.162 14.4895C36.7935 15.1085 37.4101 15.8105 38.0127 16.5958C38.1774 16.8106 39.3583 17.7717 39.3271 19.2144C39.3097 20.0175 38.8927 20.8043 38.1213 21.49Z" fill="white"/>
<path d="M33.1225 21.3718C33.7729 19.6185 33.5119 17.6479 31.8885 16.7866C31.478 16.5687 30.9688 16.725 30.751 17.1354C30.5332 17.5459 30.6895 18.0551 31.0999 18.2729C31.8978 18.6963 31.8646 19.8042 31.5825 20.6759C29.7453 20.1373 28.1163 20.6409 27.38 22.0009C27.1587 22.4095 27.3106 22.92 27.7192 23.1412C28.1278 23.3623 28.6384 23.2106 28.8596 22.802C29.7688 21.1225 33.7616 22.9928 33.4668 24.65C33.3753 25.1638 33.7698 25.6389 34.296 25.6389C34.6961 25.6389 35.0508 25.3525 35.1233 24.9448C35.3804 23.5003 34.4261 22.1949 33.1225 21.3718Z" fill="white"/>
<path d="M28.1993 18.7973C28.6223 18.6052 28.8095 18.1064 28.6174 17.6834C28.4253 17.2604 27.9267 17.0731 27.5035 17.2652C27.1514 17.4252 26.7216 17.0987 26.4163 16.6479C26.8424 16.0518 26.9761 15.3533 26.7578 14.6647C26.6174 14.2218 26.1446 13.9767 25.7016 14.117C25.2587 14.2575 25.0135 14.7304 25.1539 15.1733C25.3219 15.7029 24.4851 16.1427 24.3892 16.1911C23.6608 16.5584 22.8931 16.5248 22.6934 16.2493C22.4207 15.873 21.8947 15.7892 21.5185 16.0618C21.1423 16.3346 21.0584 16.8605 21.3311 17.2367C22.1545 18.3727 23.8474 18.332 25.1086 17.7121C25.8731 18.7565 27.0507 19.3188 28.1993 18.7973Z" fill="white"/>
<path d="M36.8538 18.2198L35.5226 18.4788C35.0665 18.5676 34.7687 19.0092 34.8575 19.4653C34.9464 19.9228 35.3893 20.219 35.8439 20.1304L37.1752 19.8714C37.6313 19.7826 37.9291 19.341 37.8403 18.8849C37.7515 18.4288 37.3097 18.1309 36.8538 18.2198Z" fill="white"/>
</g>
<defs>
<filter id="filter0_b_9996_70362" x="-40" y="-40" width="136" height="122" filterUnits="userSpaceOnUse" color-interpolation-filters="sRGB">
<feFlood flood-opacity="0" result="BackgroundImageFix"/>
<feGaussianBlur in="BackgroundImageFix" stdDeviation="20"/>
<feComposite in2="SourceAlpha" operator="in" result="effect1_backgroundBlur_9996_70362"/>
<feBlend mode="normal" in="SourceGraphic" in2="effect1_backgroundBlur_9996_70362" result="shape"/>
</filter>
</defs>
</svg>
