<svg width="9" height="487" viewBox="0 0 9 487" fill="none" xmlns="http://www.w3.org/2000/svg">

    <line y1="9.5" x2="8" y2="9.5" stroke="#5B5B5B" />
    <line y1="18.5" x2="8" y2="18.5" stroke="#5B5B5B" />
    <line y1="27.5" x2="8" y2="27.5" stroke="#5B5B5B" />
    <line y1="36.5" x2="8" y2="36.5" stroke="#5B5B5B" />
    <line y1="45.5" x2="8" y2="45.5" stroke="#5B5B5B" />
    <line y1="54.5" x2="8" y2="54.5" stroke="#5B5B5B" />
    <line y1="63.5" x2="8" y2="63.5" stroke="#5B5B5B" />
    <line y1="72.5" x2="8" y2="72.5" stroke="#5B5B5B" />
    <line y1="81.5" x2="8" y2="81.5" stroke="#5B5B5B" />
    <line y1="90.5" x2="8" y2="90.5" stroke="#5B5B5B" />
    <line y1="99.5" x2="8" y2="99.5" stroke="#5B5B5B" />
    <line y1="108.5" x2="8" y2="108.5" stroke="#5B5B5B" />
    <line y1="117.5" x2="8" y2="117.5" stroke="#5B5B5B" />
    <line y1="126.5" x2="8" y2="126.5" stroke="#5B5B5B" />
    <line y1="135.5" x2="8" y2="135.5" stroke="#5B5B5B" />
    <line y1="144.5" x2="8" y2="144.5" stroke="#5B5B5B" />
    <line y1="153.5" x2="8" y2="153.5" stroke="#5B5B5B" />
    <line y1="162.5" x2="8" y2="162.5" stroke="#5B5B5B" />
    <line y1="171.5" x2="8" y2="171.5" stroke="#5B5B5B" />
    <line y1="180.5" x2="8" y2="180.5" stroke="#5B5B5B" />
    <line y1="189.5" x2="8" y2="189.5" stroke="#5B5B5B" />
    <line y1="198.5" x2="8" y2="198.5" stroke="#5B5B5B" />
    <line y1="207.5" x2="8" y2="207.5" stroke="#5B5B5B" />
    <line y1="216.5" x2="8" y2="216.5" stroke="#5B5B5B" />
    <line y1="225.5" x2="8" y2="225.5" stroke="#5B5B5B" />
    <line y1="234.5" x2="8" y2="234.5" stroke="#5B5B5B" />
    <line y1="243.5" x2="8" y2="243.5" stroke="#5B5B5B" />
    <line y1="252.5" x2="8" y2="252.5" stroke="#5B5B5B" />
    <line y1="261.5" x2="8" y2="261.5" stroke="#5B5B5B" />
    <line y1="270.5" x2="8" y2="270.5" stroke="#5B5B5B" />
    <line y1="279.5" x2="8" y2="279.5" stroke="#5B5B5B" />
    <line y1="288.5" x2="8" y2="288.5" stroke="#5B5B5B" />
    <line y1="297.5" x2="8" y2="297.5" stroke="#5B5B5B" />
    <line y1="306.5" x2="8" y2="306.5" stroke="#5B5B5B" />
    <line y1="315.5" x2="8" y2="315.5" stroke="#5B5B5B" />
    <line y1="324.5" x2="8" y2="324.5" stroke="#5B5B5B" />
    <line y1="333.5" x2="8" y2="333.5" stroke="#5B5B5B" />
    <line y1="342.5" x2="8" y2="342.5" stroke="#5B5B5B" />
    <line y1="351.5" x2="8" y2="351.5" stroke="#5B5B5B" />
    <line y1="360.5" x2="8" y2="360.5" stroke="#5B5B5B" />
    <line y1="369.5" x2="8" y2="369.5" stroke="#5B5B5B" />
    <line y1="378.5" x2="8" y2="378.5" stroke="#5B5B5B" />
    <line y1="387.5" x2="8" y2="387.5" stroke="#5B5B5B" />
    <line y1="396.5" x2="8" y2="396.5" stroke="#5B5B5B" />
    <line y1="405.5" x2="8" y2="405.5" stroke="#5B5B5B" />
    <line y1="414.5" x2="8" y2="414.5" stroke="#5B5B5B" />
    <line y1="423.5" x2="8" y2="423.5" stroke="#5B5B5B" />
    <line y1="432.5" x2="8" y2="432.5" stroke="#5B5B5B" />
    <line y1="441.5" x2="8" y2="441.5" stroke="#5B5B5B" />
    <line y1="450.5" x2="8" y2="450.5" stroke="#5B5B5B" />
    <line y1="459.5" x2="8" y2="459.5" stroke="#5B5B5B" />
    <line y1="468.5" x2="8" y2="468.5" stroke="#5B5B5B" />
    <line y1="477.5" x2="8" y2="477.5" stroke="#5B5B5B" />
    <line y1="486.5" x2="8" y2="486.5" stroke="#5B5B5B" />
</svg>
