<svg width="9" height="280" viewBox="0 0 9 280" fill="none" xmlns="http://www.w3.org/2000/svg">
    <path d="M4 0V279.551" stroke="#333333" />
    <path d="M0 1.5H8" stroke="#5B5B5B" />
    <path d="M0 10.5H8" stroke="#5B5B5B" />
    <path d="M0.788692 20.9277L8.03915 17.5468" stroke="#5B5B5B" />
    <path d="M0 28.5H8" stroke="#5B5B5B" />
    <path d="M0 37.5H8" stroke="#5B5B5B" />
    <path d="M0 46.5H8" stroke="#5B5B5B" />
    <path d="M0 55.5H8" stroke="#5B5B5B" />
    <path d="M0 64.5H8" stroke="#5B5B5B" />
    <path d="M0 73.5H8" stroke="#5B5B5B" />
    <path d="M0 82.5H8" stroke="#5B5B5B" />
    <path d="M0 91.5H8" stroke="#5B5B5B" />
    <path d="M0 100.5H8" stroke="#5B5B5B" />
    <path d="M0 109.5H8" stroke="#5B5B5B" />
    <path d="M0 118.5H8" stroke="#5B5B5B" />
    <path d="M0 127.5H8" stroke="#5B5B5B" />
    <path d="M0 136.5H8" stroke="#5B5B5B" />
    <path d="M0 145.5H8" stroke="#5B5B5B" />
    <path d="M0 154.5H8" stroke="#5B5B5B" />
    <path d="M0 163.5H8" stroke="#5B5B5B" />
    <path d="M0 172.5H8" stroke="#5B5B5B" />
    <path d="M0 181.5H8" stroke="#5B5B5B" />
    <path d="M0 190.5H8" stroke="#5B5B5B" />
    <path d="M0 199.5H8" stroke="#5B5B5B" />
    <path d="M0 208.5H8" stroke="#5B5B5B" />
    <path d="M0 217.5H8" stroke="#5B5B5B" />
    <path d="M0 226.5H8" stroke="#5B5B5B" />
    <path d="M0 235.5H8" stroke="#5B5B5B" />
    <path d="M0 244.5H8" stroke="#5B5B5B" />
    <path d="M0 253.5H8" stroke="#5B5B5B" />
    <path d="M0 262.5H8" stroke="#5B5B5B" />
    <path d="M0 271.5H8" stroke="#5B5B5B" />
</svg>
